<svg xmlns="http://www.w3.org/2000/svg" version="1.1" xmlns:xlink="http://www.w3.org/1999/xlink" width="47" height="47"><svg width="47" height="47" viewBox="0 0 47 47" fill="none" xmlns="http://www.w3.org/2000/svg">
<path d="M19.4154 25.3539L19.2265 22.4967C19.225 22.4751 19.2079 22.4581 19.1863 22.4572C17.3161 22.3757 14.9407 22.2971 12.6377 22.2696C9.56075 22.2328 6.79356 22.2915 5.46756 22.5114C4.6518 22.6467 4.18712 23.0793 3.87316 23.8342C3.51957 24.6845 3.40808 25.8812 3.50697 27.2024C3.57017 28.0465 3.94507 28.8744 4.55656 29.7675C6.15442 32.1011 8.00502 32.1539 11.2597 32.5091C11.3034 32.5112 11.3158 32.5702 11.2765 32.5895L6.59064 34.7391L6.43977 34.8094C6.43227 34.8129 6.42386 34.8142 6.41567 34.813C5.78101 34.719 5.21138 34.6098 4.73423 34.482L4.50581 34.4208C4.50203 34.4198 4.4984 34.4183 4.49503 34.4163L4.2921 34.2949C3.49487 33.8179 2.52429 32.8969 1.73058 31.7853C0.928572 30.6621 0.170978 29.1549 0.0442184 27.4616C-0.0734444 25.8898 0.0146252 24.0693 0.666936 22.5008C1.35888 20.837 2.70644 19.4494 4.89946 19.0857C6.58224 18.8067 9.66545 18.7614 12.6792 18.7974C15.7526 18.8341 18.942 18.9598 20.945 19.0647L21.5004 19.0938C21.5273 19.0952 21.5467 19.119 21.5394 19.145C21.2392 20.2234 20.0444 23.867 19.4959 25.3671C19.4802 25.4099 19.4184 25.3993 19.4154 25.3539Z" fill="#1AE4FF"></path>
<path d="M16.9289 32.2364C15.3218 31.9685 11.056 34.2116 8.79905 35.5548C8.65646 35.6396 8.68513 35.8536 8.84303 35.9046C12.8143 37.187 18.6706 41.0376 21.1791 42.862L22.5315 43.8211L22.545 43.8314L22.559 43.8211L23.9113 42.8666C26.4198 41.0422 32.2761 37.1916 36.2474 35.9092C36.4053 35.8582 36.434 35.6442 36.2914 35.5594C34.0344 34.2162 29.7687 31.9731 28.1616 32.2409C26.5875 32.5033 23.6466 25.3982 22.657 22.2818C22.5745 22.0277 22.4736 22.1729 22.4335 22.2773C21.4439 25.3936 18.503 32.4987 16.9289 32.2364Z" fill="#1AE4FF"></path>
<path d="M25.7865 25.3503L25.9754 22.4932C25.9768 22.4716 25.994 22.4546 26.0155 22.4537C27.8858 22.3722 30.2612 22.2936 32.5642 22.2661C35.6411 22.2293 38.4083 22.288 39.7343 22.5079C40.5501 22.6432 41.0147 23.0758 41.3287 23.8307C41.6823 24.6809 41.7938 25.8777 41.6949 27.1989C41.6317 28.043 41.2568 28.8709 40.6453 29.7639C39.0474 32.0976 37.1968 32.1504 33.9422 32.5056C33.8984 32.5077 33.8861 32.5667 33.9254 32.586L38.6112 34.7355L38.7621 34.8059C38.7696 34.8094 38.778 34.8107 38.7862 34.8094C39.4209 34.7155 39.9905 34.6063 40.4676 34.4785L40.6961 34.4173C40.6998 34.4163 40.7035 34.4148 40.7068 34.4127L40.9098 34.2913C41.707 33.8144 42.6776 32.8934 43.4713 31.7818C44.2733 30.6586 45.0309 29.1514 45.1576 27.4581C45.2753 25.8863 45.1872 24.0658 44.5349 22.4973C43.843 20.8335 42.4954 19.4459 40.3024 19.0822C38.6196 18.8032 35.5364 18.7579 32.5227 18.7939C29.4492 18.8306 26.2599 18.9563 24.2569 19.0612L23.7015 19.0903C23.6745 19.0917 23.6552 19.1155 23.6624 19.1415C23.9627 20.2199 25.1575 23.8635 25.706 25.3636C25.7216 25.4064 25.7835 25.3958 25.7865 25.3503Z" fill="#1AE4FF"></path>
<path d="M1.91686 12.2305L22.3415 9.62441L24.9831 17.6268L44.8869 9.97704" stroke="#1AE4FF" stroke-width="3.47252" stroke-linecap="round"></path>
</svg><style>@media (prefers-color-scheme: light) { :root { filter: none; } }
@media (prefers-color-scheme: dark) { :root { filter: none; } }
</style></svg>