<svg width="38" height="38" viewBox="0 0 38 38" fill="none" xmlns="http://www.w3.org/2000/svg">
<path d="M15.621 17.1869L15.469 14.8881C15.4678 14.8708 15.454 14.8571 15.4367 14.8564C13.932 14.7908 12.0208 14.7276 10.1679 14.7054C7.69227 14.6758 5.46588 14.723 4.39902 14.9C3.74269 15.0088 3.36882 15.3569 3.11622 15.9643C2.83174 16.6483 2.74203 17.6112 2.8216 18.6742C2.87244 19.3534 3.17407 20.0194 3.66606 20.738C4.95165 22.6155 6.44058 22.658 9.05919 22.9438C9.09437 22.9455 9.10431 22.993 9.07268 23.0085L5.30261 24.738L5.18123 24.7946C5.17519 24.7974 5.16843 24.7984 5.16184 24.7974C4.65121 24.7218 4.19291 24.634 3.80901 24.5311L3.62523 24.4819C3.62218 24.4811 3.61927 24.4799 3.61656 24.4782L3.45329 24.3806C2.81186 23.9968 2.03096 23.2558 1.39237 22.3615C0.747099 21.4578 0.137563 20.2451 0.0355767 18.8827C-0.059091 17.6181 0.011767 16.1534 0.536595 14.8915C1.09331 13.5528 2.17752 12.4364 3.94195 12.1438C5.29586 11.9193 7.77651 11.8828 10.2013 11.9118C12.674 11.9413 15.2401 12.0425 16.8517 12.1269L17.2985 12.1503C17.3202 12.1514 17.3358 12.1706 17.3299 12.1915C17.0884 13.0591 16.1271 15.9907 15.6858 17.1976C15.6732 17.232 15.6234 17.2235 15.621 17.1869Z" fill="white"/>
<path d="M13.6204 22.7244C12.3274 22.5089 8.89532 24.3136 7.07943 25.3943C6.96471 25.4625 6.98778 25.6347 7.11482 25.6757C10.31 26.7075 15.0218 29.8056 17.0401 31.2734L18.1281 32.0451L18.1389 32.0533L18.1502 32.0451L19.2383 31.2771C21.2566 29.8093 25.9683 26.7112 29.1635 25.6794C29.2906 25.6384 29.3136 25.4662 29.1989 25.398C27.383 24.3173 23.9509 22.5125 22.6579 22.7281C21.3914 22.9391 19.0253 17.2226 18.2291 14.7153C18.1627 14.5108 18.0815 14.6276 18.0492 14.7116C17.253 17.2189 14.8869 22.9354 13.6204 22.7244Z" fill="white"/>
<path d="M20.747 17.1841L20.899 14.8853C20.9001 14.868 20.9139 14.8543 20.9313 14.8535C22.436 14.788 24.3472 14.7247 26.2001 14.7026C28.6757 14.673 30.9021 14.7202 31.9689 14.8971C32.6253 15.006 32.9991 15.3541 33.2517 15.9615C33.5362 16.6455 33.6259 17.6084 33.5464 18.6713C33.4955 19.3505 33.1939 20.0166 32.7019 20.7351C31.4163 22.6127 29.9274 22.6552 27.3088 22.941C27.2736 22.9427 27.2636 22.9902 27.2953 23.0056L31.0653 24.7351L31.1867 24.7918C31.1928 24.7946 31.1995 24.7956 31.2061 24.7946C31.7167 24.719 32.175 24.6312 32.5589 24.5283L32.7427 24.4791C32.7458 24.4783 32.7487 24.477 32.7514 24.4754L32.9147 24.3777C33.5561 23.994 34.337 23.253 34.9756 22.3586C35.6209 21.4549 36.2304 20.2423 36.3324 18.8799C36.427 17.6153 36.3562 16.1506 35.8314 14.8886C35.2747 13.55 34.1904 12.4336 32.426 12.141C31.0721 11.9164 28.5915 11.88 26.1667 11.909C23.6939 11.9385 21.1279 12.0397 19.5163 12.1241L19.0695 12.1475C19.0478 12.1486 19.0322 12.1678 19.038 12.1887C19.2796 13.0563 20.2409 15.9879 20.6822 17.1947C20.6948 17.2292 20.7446 17.2207 20.747 17.1841Z" fill="white"/>
<path d="M1.53993 6.62909L17.9729 4.53231L20.0983 10.9708L36.1122 4.81603" stroke="white" stroke-width="2.79388" stroke-linecap="round"/>
</svg>
